<?xml version="1.0" standalone="no"?>
<!DOCTYPE svg PUBLIC "-//W3C//DTD SVG 20010904//EN"
 "http://www.w3.org/TR/2001/REC-SVG-20010904/DTD/svg10.dtd">
<svg version="1.0" xmlns="http://www.w3.org/2000/svg"
 width="300.000000pt" height="300.000000pt" viewBox="0 0 300.000000 300.000000"
 preserveAspectRatio="xMidYMid meet">
<metadata>
Created by potrace 1.11, written by Peter Selinger 2001-2013
</metadata>
<g transform="translate(0.000000,300.000000) scale(0.100000,-0.100000)"
fill="#000000" stroke="none">
<path d="M1252 2123 c-51 -153 -173 -515 -271 -806 l-178 -527 195 2 196 3 30
93 30 92 252 0 252 0 32 -95 32 -95 189 0 c104 0 189 4 189 8 0 4 -114 366
-253 803 l-254 794 -174 3 -174 2 -93 -277z m322 -568 c31 -96 59 -181 62
-190 5 -13 -11 -15 -124 -15 l-131 0 60 178 c69 208 67 202 73 202 2 0 29 -79
60 -175z"/>
</g>
</svg>
